<?xml version="1.0" encoding="UTF-8"?>
<svg version="1.1" xmlns="http://www.w3.org/2000/svg" width="1012" height="415">
<path d="M0 0 C0.77730469 0.57234375 1.55460938 1.1446875 2.35546875 1.734375 C15.04459545 11.95556483 21.69497693 27.22513895 23.54681396 43.15959167 C24.05516922 47.96652608 24.13809218 52.72187953 24.12597656 57.55200195 C24.12877876 58.91494385 24.12877876 58.91494385 24.13163757 60.30541992 C24.13561603 62.2630771 24.13771404 64.22073885 24.13809967 66.17840004 C24.1415488 70.35762716 24.16295023 74.53670331 24.18333054 78.71587658 C24.22117304 86.47751685 24.25261681 94.23898902 24.25048828 102.00073242 C24.24969778 107.41893521 24.27320166 112.83657389 24.3123703 118.25462914 C24.32277326 120.30729824 24.3243968 122.36003289 24.31671906 124.412714 C23.98711281 140.4437756 23.98711281 140.4437756 30 155 C32.5606587 157.2731382 32.5606587 157.2731382 35 159 C31.99036054 172.64897896 25.8295102 182.1704898 16 192 C0.23618667 191.89611985 -11.53833785 186.78396769 -22.73828125 175.890625 C-25.53451455 173.55206577 -25.53451455 173.55206577 -29 173 C-30.75463891 174.14854121 -30.75463891 174.14854121 -32.375 175.9375 C-40.67262239 183.66340539 -51.22602286 188.72096348 -62 192 C-63.8253125 192.5878125 -63.8253125 192.5878125 -65.6875 193.1875 C-84.29605107 197.40290647 -103.48689044 194.52328678 -119.8125 184.6875 C-133.0951856 175.67837411 -141.23274494 162.88727318 -144.37890625 147.2109375 C-147.42468866 128.84983784 -144.07847454 110.68531262 -134 95 C-128.10083934 86.80659511 -120.85707466 80.84606558 -112 76 C-111.38253906 75.62617188 -110.76507812 75.25234375 -110.12890625 74.8671875 C-98.2818233 68.1652742 -83.73387093 65.82207141 -70.34765625 65.90234375 C-69.44752304 65.9037587 -68.54738983 65.90517365 -67.61997986 65.90663147 C-64.76745163 65.9121934 -61.91500419 65.92473873 -59.0625 65.9375 C-57.11914176 65.94251992 -55.17578229 65.94708197 -53.23242188 65.95117188 C-48.4882505 65.96215034 -43.74413891 65.97938847 -39 66 C-39.12178817 63.94870149 -39.25405763 61.89802385 -39.390625 59.84765625 C-39.46313477 58.70562744 -39.53564453 57.56359863 -39.61035156 56.38696289 C-40.30671943 50.33388559 -42.09663279 45.12089489 -46.1875 40.5625 C-65.89715817 29.61268991 -92.0032482 39.12374171 -112.125 44.8125 C-115.75540147 45.85730279 -119.38079648 46.91705544 -123 48 C-131.69034503 33.74108437 -135.58392218 20.47325787 -138 4 C-128.62868635 0.11606016 -119.23409931 -2.72311395 -109.375 -5.0625 C-108.66599548 -5.23331085 -107.95699097 -5.4041217 -107.22650146 -5.58010864 C-73.57529509 -13.6484798 -29.98119845 -22.76084603 0 0 Z M-80.3125 113.375 C-84.82146571 120.38894666 -84.71930226 127.92168234 -84 136 C-83.01923714 140.04719865 -81.59178682 142.7747194 -78.26953125 145.33203125 C-71.42728598 149.19701211 -63.94542039 149.80266938 -56.40234375 147.8671875 C-51.64680315 146.15055333 -47.2895267 143.65477794 -43 141 C-42.29689697 140.62375488 -41.59379395 140.24750977 -40.86938477 139.85986328 C-38.66929773 138.04632331 -38.66929773 138.04632331 -38.54589844 134.72192383 C-38.54652985 133.3834592 -38.56902269 132.04488762 -38.609375 130.70703125 C-38.61786469 129.64798836 -38.61786469 129.64798836 -38.62652588 128.56755066 C-38.64889589 126.31517374 -38.69908801 124.06439497 -38.75 121.8125 C-38.77006444 120.28452821 -38.78831532 118.75653144 -38.8046875 117.22851562 C-38.84876198 113.48506244 -38.91778926 109.74280205 -39 106 C-42.45725945 105.77048369 -45.9156576 105.5703929 -49.375 105.375 C-50.82326172 105.27832031 -50.82326172 105.27832031 -52.30078125 105.1796875 C-62.77795315 104.61715478 -72.66252477 105.51826868 -80.3125 113.375 Z " fill="#040404" transform="translate(633,143)"/>
<path d="M0 0 C6.11623011 6.54294384 9.04516705 13.35882296 11.41796875 21.88671875 C11.67297653 22.79322678 11.92798431 23.6997348 12.1907196 24.63371277 C15.58946662 36.90132613 18.56769001 49.27637892 21.51639175 61.65840912 C22.00561839 63.71107325 22.49711705 65.76318422 22.98886108 67.81524658 C27.9933796 88.73833174 32.39748523 109.71416436 36.07348633 130.91723633 C36.23993652 131.86400742 36.40638672 132.8107785 36.57788086 133.78623962 C36.88437795 135.54002365 37.18282293 137.29524157 37.47167969 139.05201721 C37.81152234 141.00553001 38.24013971 142.94327174 38.6875 144.875 C39.3475 145.205 40.0075 145.535 40.6875 145.875 C43.9396362 131.7461792 47.19145949 117.6172864 50.44293976 103.48831463 C51.95368141 96.92357391 53.46452099 90.35885576 54.97558594 83.79418945 C61.56677624 55.15914669 68.15628428 26.52379227 74.6875 -2.125 C91.41259157 -7.06035506 112.75980322 -7.54388445 129.0703125 -0.70703125 C131.6875 0.875 131.6875 0.875 132.6875 3.875 C132.18200235 6.33919967 131.59908923 8.69187864 130.9152832 11.10693359 C130.71305586 11.84650866 130.51082851 12.58608372 130.30247307 13.34807014 C129.62264946 15.82554451 128.93056547 18.29941852 128.23828125 20.7734375 C127.75271919 22.53143879 127.26781392 24.2896216 126.78352356 26.04797363 C125.47278988 30.79711957 124.15074131 35.54304634 122.82596588 40.28829193 C122.00091417 43.246722 121.17895857 46.20599419 120.35809326 49.16558838 C112.98820016 75.73542395 105.49440201 102.26865796 97.8125 128.75 C97.61429783 129.43368401 97.41609566 130.11736801 97.21188736 130.82176971 C92.62456319 146.64000421 87.94260913 162.42910082 83.1796875 178.1953125 C82.95996403 178.92433651 82.74024055 179.65336052 82.5138588 180.40447617 C81.89519853 182.45532373 81.2739883 184.50537935 80.65185547 186.55517578 C80.29622528 187.72911896 79.94059509 188.90306213 79.57418823 190.11257935 C78.6875 192.875 78.6875 192.875 77.6875 194.875 C75.21800662 195.39795154 72.87922162 195.74127302 70.375 196 C69.57191406 196.0834668 68.76882813 196.16693359 67.94140625 196.25292969 C58.70491555 197.06810988 49.45285941 197.09658189 40.1875 197.125 C39.40700287 197.13017639 38.62650574 197.13535278 37.82235718 197.14068604 C8.58433372 197.29326491 8.58433372 197.29326491 -1.66015625 187.69921875 C-6.89830815 181.91619999 -9.6752902 175.31904666 -12.08007812 167.96923828 C-12.33717308 167.18947191 -12.59426804 166.40970554 -12.85915375 165.60630989 C-16.18856433 155.36248813 -19.06375599 144.98734371 -21.96875 134.6171875 C-22.59880785 132.38123512 -23.22931173 130.14540838 -23.86022949 127.90969849 C-25.51553253 122.04058287 -27.16614251 116.17015931 -28.81530762 110.29931641 C-31.41435561 101.04849998 -34.01876026 91.79919355 -36.62615967 82.55072784 C-37.26999932 80.26603218 -37.91327139 77.98117649 -38.55596924 75.69615936 C-42.11114709 63.05859366 -45.71532907 50.43812421 -49.4375 37.84863281 C-49.76874626 36.72572153 -50.09999252 35.60281025 -50.44127655 34.44587135 C-52.01965176 29.09830086 -53.60719863 23.75377018 -55.21105957 18.41378784 C-55.77187234 16.52220594 -56.33239566 14.63053819 -56.89257812 12.73876953 C-57.15472107 11.87868412 -57.41686401 11.01859871 -57.68695068 10.1324501 C-59.42594826 4.21534479 -59.42594826 4.21534479 -58.3125 0.875 C-56.6418457 -0.00048828 -56.6418457 -0.00048828 -54.48828125 -0.6953125 C-53.70646484 -0.95183594 -52.92464844 -1.20835937 -52.11914062 -1.47265625 C-51.29607422 -1.72917969 -50.47300781 -1.98570312 -49.625 -2.25 C-48.82126953 -2.51425781 -48.01753906 -2.77851563 -47.18945312 -3.05078125 C-31.85452752 -7.99105982 -13.92351849 -8.93206846 0 0 Z " fill="#040404" transform="translate(730.3125,137.125)"/>
<path d="M0 0 C0.72388916 0.00091141 1.44777832 0.00182281 2.19360352 0.00276184 C2.94391846 -0.00152328 3.6942334 -0.00580841 4.46728516 -0.01022339 C6.06110629 -0.01597491 7.65495367 -0.01646091 9.2487793 -0.01213074 C11.65664381 -0.00900489 14.0632379 -0.03229746 16.47094727 -0.05778503 C27.59268716 -0.10521681 37.60277817 0.14522088 46.00610352 8.31135559 C56.02600559 20.14040666 53.98343346 39.68951436 53.94897461 54.25471497 C53.95173084 56.21598963 53.95541455 58.17726318 53.95994568 60.13853455 C53.96799959 64.33061232 53.97024103 68.52263695 53.9679985 72.71472168 C53.9651462 79.34646398 53.97958547 85.97810143 53.99697876 92.6098175 C54.04383324 111.45660365 54.06796291 130.30338088 54.07446289 149.15022278 C54.07821265 159.58300175 54.09622535 170.01566029 54.12955725 180.44838762 C54.14975602 187.03901315 54.15215034 193.62932782 54.14127707 200.21997166 C54.1386704 204.31535768 54.15267002 208.41056233 54.17135811 212.50590134 C54.17667974 214.40255955 54.1751838 216.29925117 54.16632271 218.19589615 C54.15519073 220.78767253 54.16864427 223.3782232 54.18807983 225.96992493 C54.17895518 226.7174929 54.16983052 227.46506087 54.16042936 228.23528242 C54.24108823 233.77379087 55.62253231 236.8517726 58.69360352 241.30354309 C63.41795171 244.62428059 67.98346129 244.82538209 73.56860352 244.99104309 C74.35235352 245.02520325 75.13610352 245.0593634 75.94360352 245.09455872 C77.859791 245.17634721 79.77667067 245.24163769 81.69360352 245.30354309 C82.17870145 246.67646177 82.65635865 248.05201013 83.13110352 249.42854309 C83.39793945 250.19424622 83.66477539 250.95994934 83.93969727 251.74885559 C85.41067458 256.73341085 85.82103977 261.54425345 85.82641602 266.72541809 C85.82770508 267.91522278 85.82899414 269.10502747 85.83032227 270.33088684 C85.82645508 271.5593634 85.82258789 272.78783997 85.81860352 274.05354309 C85.8224707 275.2974884 85.82633789 276.54143372 85.83032227 277.82307434 C85.8290332 279.00772278 85.82774414 280.19237122 85.82641602 281.41291809 C85.82472412 283.03665344 85.82472412 283.03665344 85.82299805 284.69319153 C85.69360352 287.30354309 85.69360352 287.30354309 84.69360352 289.30354309 C82.85864258 289.79011536 82.85864258 289.79011536 80.45922852 290.11994934 C79.58129639 290.24394104 78.70336426 290.36793274 77.79882812 290.49568176 C76.856604 290.617901 75.91437988 290.74012024 74.94360352 290.86604309 C73.98655518 290.99535217 73.02950684 291.12466125 72.04345703 291.25788879 C51.25497082 294.00009522 27.23053172 296.69729722 8.61157227 284.99494934 C-0.85405555 277.71528351 -4.84447892 265.59458542 -6.84564686 254.24526691 C-7.40121328 249.4923832 -7.44795801 244.84059107 -7.44010925 240.06018066 C-7.44237481 239.04288984 -7.44464037 238.02559901 -7.44697458 236.97748119 C-7.45329315 233.57663538 -7.45248661 230.17582965 -7.45166016 226.77497864 C-7.45465282 224.33387195 -7.4580556 221.89276574 -7.46183777 219.45166016 C-7.46975072 213.51562293 -7.47289171 207.57959506 -7.47345015 201.64355364 C-7.47392579 196.82108157 -7.47598294 191.99861277 -7.47915077 187.17614174 C-7.48794931 173.5039214 -7.49257094 159.83170891 -7.4918203 146.15948572 C-7.49178034 145.42319409 -7.49174039 144.68690245 -7.49169922 143.92829895 C-7.49165834 143.19110962 -7.49161746 142.45392029 -7.49157534 141.69439188 C-7.49116821 129.72663409 -7.50075663 117.75890765 -7.51483759 105.79115894 C-7.52918148 93.50317058 -7.53610899 81.21519756 -7.53524381 68.92720062 C-7.53491134 62.02799866 -7.53768062 55.12882966 -7.54842186 48.22963524 C-7.55844634 41.74949519 -7.5582121 35.26940693 -7.55090523 28.78926277 C-7.54985422 26.40512363 -7.55225257 24.02098024 -7.55826569 21.63684845 C-7.56591546 18.39514423 -7.56138787 15.15368575 -7.55363464 11.9119873 C-7.55877821 10.95763265 -7.56392177 10.00327799 -7.5692212 9.0200035 C-7.5646224 8.15645619 -7.56002361 7.29290888 -7.55528545 6.40319347 C-7.55550282 5.65438229 -7.55572019 4.9055711 -7.55594414 4.13406867 C-6.94996622 -0.31100645 -3.73239583 0.05323557 0 0 Z " fill="#040404" transform="translate(383.306396484375,40.69645690917969)"/>
<path d="M0 0 C2.6722636 -0.00978762 5.3437821 -0.04095879 8.01586914 -0.07226562 C22.29799984 -0.16273826 32.47168984 1.31361303 43.47875977 11.24023438 C52.04305839 20.81956098 55.60891664 32.37912614 55.59901428 45.07394409 C55.59986871 45.73652257 55.60072313 46.39910105 55.60160345 47.08175766 C55.60324238 49.28809436 55.59776303 51.49435397 55.59228516 53.70068359 C55.59200292 55.28775531 55.59216174 56.87482716 55.59272766 58.4618988 C55.5930142 62.76100466 55.58714068 67.06008252 55.5801537 71.35918188 C55.57389626 75.85551149 55.57331447 80.35184176 55.5721283 84.84817505 C55.56902203 93.35843835 55.56081814 101.86868878 55.55077881 110.37894642 C55.53959578 120.06934683 55.5341017 129.75974786 55.52908337 139.45015311 C55.51863495 159.38018738 55.50104915 179.31021007 55.47875977 199.24023438 C53.40749145 199.57089838 51.33568421 199.8981877 49.26365662 200.22406006 C47.53313883 200.49799402 47.53313883 200.49799402 45.76766109 200.77746201 C41.76050163 201.34129853 37.86611286 201.53003675 33.82641602 201.50585938 C32.70522621 201.50872955 32.70522621 201.50872955 31.56138611 201.51165771 C30.00299741 201.51299997 28.44459675 201.50944329 26.88623047 201.50097656 C24.54766835 201.49026373 22.20987678 201.5009318 19.87133789 201.51367188 C18.33552896 201.51234964 16.7997205 201.50978592 15.26391602 201.50585938 C14.58949966 201.50990784 13.91508331 201.5139563 13.2202301 201.51812744 C8.47160223 201.47395514 3.88489497 200.91335529 -0.81422424 200.22406006 C-2.07129968 200.04077023 -3.32837511 199.85748039 -4.62354374 199.66863632 C-5.57978358 199.52726368 -6.53602343 199.38589104 -7.52124023 199.24023438 C-7.52362859 198.53308352 -7.52601694 197.82593266 -7.52847767 197.09735298 C-7.58771061 179.86090405 -7.66331353 162.62460395 -7.75695515 145.38830757 C-7.80184883 137.05282992 -7.84127819 128.71739438 -7.86767578 120.38183594 C-7.89070806 113.1133772 -7.92416414 105.84505245 -7.96994179 98.57670009 C-7.99380379 94.73103618 -8.01257842 90.88550438 -8.01885414 87.03976822 C-8.02493702 83.41339502 -8.04505096 79.78735957 -8.07551575 76.16111183 C-8.08837918 74.20930039 -8.08673483 72.25740983 -8.08451843 70.30555725 C-8.15850595 63.32282973 -8.54334875 56.67037251 -11.52124023 50.24023438 C-13.66615335 48.54836247 -13.66615335 48.54836247 -16.52124023 48.24023438 C-17.8137649 47.88921189 -19.10536759 47.53478426 -20.39624023 47.17773438 C-24.08645737 46.28675039 -27.75570527 45.71092625 -31.52124023 45.24023438 C-34.18427413 38.22335141 -33.81563292 31.16121082 -33.77124023 23.74023438 C-33.77897461 22.44730469 -33.78670898 21.154375 -33.79467773 19.82226562 C-33.76314613 4.48214027 -33.76314613 4.48214027 -30.52124023 1.24023438 C-20.45335886 -0.14752742 -10.14217382 0.02244051 0 0 Z " fill="#040404" transform="translate(906.521240234375,132.759765625)"/>
<path d="M0 0 C11.56148441 9.62313465 17.17263277 21.09361117 19 36 C18.67 36.66 18.34 37.32 18 38 C17.236875 36.989375 16.47375 35.97875 15.6875 34.9375 C5.97247069 23.67171484 -8.66396326 19.30475875 -23 18 C-51.57900351 16.48085031 -83.04364019 23.13664951 -105.0625 42.25 C-107.49980962 44.45371575 -109.1613624 46.2420436 -111 49 C-110.43715364 49.00054477 -109.87430729 49.00108953 -109.29440498 49.00165081 C-95.56287217 49.01665545 -81.83166672 49.05956423 -68.10031319 49.13209057 C-61.45968809 49.16633065 -54.8194288 49.19146595 -48.17871094 49.19555664 C-41.76590615 49.19984586 -35.35361847 49.22836177 -28.94097519 49.27343178 C-26.4986968 49.2863866 -24.05635648 49.29072166 -21.614048 49.28615379 C-18.18370489 49.28123383 -14.75486499 49.3074053 -11.32470703 49.34057617 C-10.32272781 49.33195053 -9.3207486 49.32332489 -8.28840637 49.31443787 C-1.99678159 49.41592701 2.34994776 50.69855816 7.82000923 53.83177662 C14.39822853 57.35694274 23.11528763 57.0144484 30.15625 55.17578125 C33.50766922 53.964045 36.74938091 52.70748699 39.85517502 50.95051003 C42.29561589 49.86899357 43.99585719 49.7397544 46.65704346 49.7215271 C47.58809906 49.71036362 48.51915466 49.69920013 49.47842407 49.68769836 C50.99972427 49.68445808 50.99972427 49.68445808 52.55175781 49.68115234 C53.62523468 49.67110672 54.69871155 49.6610611 55.80471802 49.65071106 C59.35418155 49.61981159 62.90356942 49.60282492 66.453125 49.5859375 C68.91364191 49.56723132 71.37415237 49.54765832 73.83465576 49.5272522 C80.3118917 49.47586704 86.78914844 49.43627537 93.26647949 49.39910889 C99.87562231 49.35910932 106.48467807 49.30799851 113.09375 49.2578125 C126.0624378 49.16097758 139.0311755 49.07621968 152 49 C150.9032517 47.71575381 149.80203675 46.43532134 148.69897461 45.15649414 C148.08622177 44.44304337 147.47346893 43.72959259 146.84214783 42.99452209 C131.80244972 26.71080711 102.12321501 18.94473604 80.875 17.89501953 C59.89393289 17.16195707 41.28334554 20.05474566 25.20703125 34.625 C24.10195757 35.71459646 23.04213417 36.85005885 22 38 C23.86523498 23.71622687 28.39266162 10.27003053 39.6875 0.625 C54.25890059 -10.22556894 72.16466818 -10.77991021 89.63720703 -8.68359375 C94.56066154 -7.84659633 99.25199279 -6.53716101 104 -5 C105.11761719 -4.649375 106.23523438 -4.29875 107.38671875 -3.9375 C114.99896973 -1.18677442 119.74465045 2.93849004 125 9 C125.59167969 9.66257813 126.18335938 10.32515625 126.79296875 11.0078125 C127.93397784 12.29764886 129.06549861 13.59593935 130.1875 14.90234375 C132.25850341 17.29917312 134.37603218 19.65000182 136.5 22 C139.17048344 24.95869751 141.82298058 27.92926472 144.4375 30.9375 C147.24822525 34.16559512 150.115799 37.33738443 153 40.5 C159.6744186 47.83575581 159.6744186 47.83575581 162 50.4375 C162.53625 51.03433594 163.0725 51.63117188 163.625 52.24609375 C165.05989385 54.07639869 165.99043426 55.91210803 167 58 C166.04888478 58.00219984 166.04888478 58.00219984 165.07855511 58.00444412 C149.61088967 58.0415845 134.14348497 58.10069437 118.67600536 58.18390274 C111.19586542 58.22361939 103.71582955 58.25604913 96.2355957 58.27099609 C89.7116417 58.28405107 83.18791742 58.31111297 76.66409284 58.35461307 C73.21350143 58.37714218 69.76319245 58.39291588 66.31252098 58.39188385 C62.44924234 58.39099198 58.58653551 58.42138869 54.72338867 58.45410156 C53.02944725 58.44655602 53.02944725 58.44655602 51.30128479 58.43885803 C44.71743939 58.52471482 39.44779576 59.53039953 33.34956837 62.04653549 C22.81859579 66.32004748 12.28411025 63.82200515 2 60 C1.34 59.67 0.68 59.34 0 59 C-1.67220548 58.8952625 -3.34851451 58.85343976 -5.0239563 58.84178162 C-6.08688904 58.8319928 -7.14982178 58.82220398 -8.2449646 58.81211853 C-9.4159671 58.80636307 -10.5869696 58.8006076 -11.79345703 58.79467773 C-13.02269897 58.78477814 -14.25194092 58.77487854 -15.51843262 58.76467896 C-18.89423445 58.73845605 -22.27001218 58.71660855 -25.64585352 58.69667697 C-29.17195863 58.67483336 -32.69802041 58.64743674 -36.22409058 58.62062073 C-42.90345171 58.57067182 -49.58283687 58.52574117 -56.26224506 58.48259836 C-63.86556106 58.43324475 -71.46883359 58.37831968 -79.07210755 58.32291877 C-94.71469821 58.209065 -110.35732882 58.10223337 -126 58 C-124.19973587 54.13868341 -121.71905467 51.32024934 -118.8125 48.25 C-117.81051284 47.17511738 -116.80920995 46.09959648 -115.80859375 45.0234375 C-115.0813208 44.24371582 -115.0813208 44.24371582 -114.33935547 43.44824219 C-112.08503483 41.01065013 -109.91722515 38.50024527 -107.7421875 35.9921875 C-105.68499601 33.63979365 -103.59403085 31.31965034 -101.5 29 C-98.23854875 25.38595942 -95.01640845 21.74210646 -91.8203125 18.0703125 C-88.98544631 14.84610846 -86.09728581 11.67029665 -83.2109375 8.4921875 C-80.90327185 5.96317362 -80.90327185 5.96317362 -78.69140625 2.89453125 C-75.62632309 -0.40187894 -72.73052997 -1.79044555 -68.5625 -3.1875 C-67.49708984 -3.5580249 -67.49708984 -3.5580249 -66.41015625 -3.93603516 C-64.2821506 -4.65566207 -62.14571184 -5.33525407 -60 -6 C-58.90558594 -6.34417969 -57.81117187 -6.68835938 -56.68359375 -7.04296875 C-38.44586349 -11.80939396 -15.47029051 -11.68921312 0 0 Z " fill="#292929" transform="translate(151,246)"/>
<path d="M0 0 C0.83313721 0.23577759 1.66627441 0.47155518 2.5246582 0.71447754 C5.50528037 1.61485485 8.45444422 2.58743501 11.40625 3.578125 C12.50883652 3.9415097 13.61142303 4.30489441 14.74742126 4.67929077 C18.33386641 5.86283508 21.91688585 7.05641365 25.5 8.25 C27.96856941 9.066385 30.43740283 9.88197214 32.90649414 10.69677734 C37.88402566 12.33977963 42.86053975 13.98581068 47.83642578 15.63378906 C58.02394058 19.0037327 68.2299849 22.3162485 78.4375 25.625 C80.1471678 26.17991326 81.85680429 26.734923 83.56640625 27.29003906 C87.37737283 28.52740684 91.18859175 29.76399338 95 31 C95 31.99 95 32.98 95 34 C90.87043437 35.60806391 86.71982854 37.1527957 82.5625 38.6875 C81.39783203 39.14189453 80.23316406 39.59628906 79.03320312 40.06445312 C77.88916016 40.48017578 76.74511719 40.89589844 75.56640625 41.32421875 C74.52427979 41.71697998 73.48215332 42.10974121 72.40844727 42.5144043 C68.36745949 43.09011697 66.27114528 42.24882074 62.53096008 40.83628845 C57.73884462 39.25286134 52.73173262 38.84564622 47.73828125 38.24609375 C46.58885544 38.09970963 45.43942963 37.9533255 44.25517273 37.80250549 C40.60863681 37.33890492 36.96077728 36.88717531 33.3125 36.4375 C29.65366989 35.98318583 25.99526051 35.52615131 22.33769226 35.06178284 C20.06910159 34.7740382 17.79975866 34.49214696 15.52961731 34.21690369 C5.04367387 32.89232198 5.04367387 32.89232198 1 31 C0.505 29.515 0.505 29.515 0 28 C-5.26922308 26.99448194 -5.26922308 26.99448194 -10.4375 27.75 C-12.30609329 29.01286106 -12.30609329 29.01286106 -13 32 C-11.46172153 34.207809 -11.46172153 34.207809 -9 36 C-4.8621671 35.85222025 -1.55862555 35.13517533 2 33 C1.67 34.32 1.34 35.64 1 37 C1.93791382 37.10489746 1.93791382 37.10489746 2.89477539 37.21191406 C10.93294651 38.1151283 18.96730377 39.04940645 27 40 C27.69593262 40.08203674 28.39186523 40.16407349 29.10888672 40.24859619 C33.39843052 40.75530525 37.68638339 41.27333051 41.97286987 41.80529785 C43.36710857 41.97690774 44.76174968 42.14527893 46.1567688 42.3104248 C48.11728972 42.5432562 50.07627544 42.78890694 52.03515625 43.03515625 C53.1631665 43.1731665 54.29117676 43.31117676 55.45336914 43.45336914 C56.29375732 43.63375732 57.13414551 43.81414551 58 44 C58.33 44.66 58.66 45.32 59 46 C46.80153311 50.65130265 34.53624348 55.10623887 22.20678711 59.3984375 C20.09494536 60.13829541 17.98623113 60.88713638 15.88061523 61.64453125 C12.79352332 62.75368319 9.69730547 63.83277133 6.59765625 64.90625 C5.66623306 65.24773071 4.73480988 65.58921143 3.77516174 65.94104004 C-2.56953165 68.0909183 -6.68574525 68.13223683 -13 66 C-14.36983788 65.5654097 -14.36983788 65.5654097 -15.76734924 65.12203979 C-18.95984206 64.08304243 -22.13028157 62.9909601 -25.30078125 61.88671875 C-26.4796138 61.48026627 -27.65844635 61.07381378 -28.8730011 60.65504456 C-32.03661471 59.56266223 -35.19856854 58.4657292 -38.35968781 57.36616516 C-40.3159084 56.68631547 -42.27279038 56.00840644 -44.22991943 55.33117676 C-65.21862165 48.06814054 -86.1523577 40.65936316 -107 33 C-104.21977301 30.21977301 -100.92579371 29.4646666 -97.26831055 28.26611328 C-96.07024529 27.86566299 -96.07024529 27.86566299 -94.84797668 27.4571228 C-92.19611268 26.57239535 -89.54148295 25.69629528 -86.88671875 24.8203125 C-85.03725951 24.20546802 -83.18796264 23.59013494 -81.33882141 22.97433472 C-77.45192546 21.68125424 -73.563769 20.39206518 -69.67456055 19.10595703 C-64.72162026 17.4680722 -59.77080236 15.82389213 -54.82080364 14.17714119 C-50.07263683 12.59777101 -45.32349807 11.02133357 -40.57421875 9.4453125 C-39.68176641 9.1489603 -38.78931408 8.85260811 -37.86981773 8.54727554 C-32.96075972 6.91841619 -28.04744761 5.30367683 -23.12923813 3.70267487 C-21.13829855 3.04564023 -19.15730846 2.36493532 -17.17715454 1.6762085 C-11.03350766 -0.38617432 -6.30993576 -1.81407802 0 0 Z " fill="#222222" transform="translate(178,118)"/>
<path d="M0 0 C8.30092373 2.19625129 16.02169478 5.43442387 23.875 8.875 C27.44051976 10.4240503 31.00625553 11.97149226 34.58105469 13.49902344 C36.82316251 14.48334784 39.04449649 15.51673764 41.23925781 16.60253906 C42.25600586 17.0869043 43.27275391 17.57126953 44.3203125 18.0703125 C45.20219238 18.51391113 46.08407227 18.95750977 46.99267578 19.41455078 C51.52058923 20.29601989 54.81640099 18.71589729 59 17 C59.69517731 16.72140137 60.39035461 16.44280273 61.1065979 16.15576172 C63.20271486 15.29472105 65.28178883 14.40087732 67.359375 13.49609375 C68.11164368 13.17214127 68.86391235 12.84818878 69.63897705 12.51441956 C72.010828 11.49223628 74.38047725 10.46506707 76.75 9.4375 C79.13425792 8.40744077 81.51896111 7.3784207 83.90386963 6.34986877 C85.37907973 5.7132306 86.85383656 5.07554072 88.32806396 4.43663025 C90.21656958 3.61945734 92.10816168 2.80942747 94 2 C94.92458008 1.60047119 95.84916016 1.20094238 96.80175781 0.78930664 C99 0 99 0 102 0 C102.052221 5.81974058 102.06427946 11.63673059 102.01660156 17.45654297 C102.0024926 19.61811922 102.01058368 21.77982217 102.0234375 23.94140625 C101.85511456 30.42183926 101.02916555 34.73969093 96.27734375 39.35546875 C78.92142427 51.8886456 52.18445107 52.15204416 31.85693359 49.1796875 C20.40235703 47.18343221 10.04127363 43.746262 2 35 C-2.66965608 25.66068783 -0.09300738 10.18216182 0 0 Z " fill="#212121" transform="translate(121,174)"/>
<path d="M0 0 C1.11697266 -0.020625 2.23394531 -0.04125 3.38476562 -0.0625 C12.85913618 -0.10643911 22.4603978 0.68217714 30.4375 6.25 C36.65948481 18.67614159 35.84539114 34.75922454 32.484375 47.8671875 C30.67406111 51.98767808 28.53225817 53.7952543 24.390625 55.515625 C8.44974742 59.75307347 -12.13090813 61.70937575 -27.25390625 53.8515625 C-31.16274695 51.1398456 -32.16297164 47.1330917 -33.12109375 42.6171875 C-34.56855754 31.57547255 -35.9628674 15.91800227 -29.5625 6.25 C-20.60030708 0.20337196 -10.42010504 0.04696385 0 0 Z " fill="#060606" transform="translate(921.5625,48.75)"/>
<path d="M0 0 C2.625 0.3125 2.625 0.3125 4.25 1.75 C8.78366138 10.19909621 11.29958628 21.04512438 8.8125 30.5 C7.625 33.3125 7.625 33.3125 5.625 35.3125 C3.95833333 35.3125 2.29166667 35.3125 0.625 35.3125 C-0.035 35.9725 -0.695 36.6325 -1.375 37.3125 C-7.125 34.6875 -7.125 34.6875 -9.375 31.3125 C-10.24851802 20.59905842 -10.1531224 10.05846438 -3.375 1.3125 C-2.375 0.3125 -2.375 0.3125 0 0 Z " fill="#2E2E2E" transform="translate(244.375,181.6875)"/>
<path d="M0 0 C0.37898438 0.44472656 0.75796875 0.88945312 1.1484375 1.34765625 C-5.6173733 0.91547891 -12.23997695 -0.00142495 -18.9140625 -1.15234375 C-40.20277345 -4.77845483 -61.13134755 -4.72939481 -82.1171875 0.76171875 C-84.78694299 1.33380921 -87.1313819 1.45686058 -89.8515625 1.34765625 C-81.93841618 -5.28721259 -70.01245387 -9.43936537 -59.8515625 -10.65234375 C-59.12710938 -10.77222656 -58.40265625 -10.89210938 -57.65625 -11.015625 C-41.37634137 -13.30584943 -12.91398042 -11.52450151 0 0 Z " fill="#393939" transform="translate(280.8515625,287.65234375)"/>
<path d="M0 0 C0 0.33 0 0.66 0 1 C-5.72258438 0.48905497 -11.3000135 -0.40292577 -16.9375 -1.5 C-39.47163585 -5.80871919 -61.10612544 -3.81830766 -83.49658203 0.61962891 C-86.03761612 1.00571542 -88.43402515 1.06608894 -91 1 C-85.29006296 -6.18553875 -68.91460737 -9.64265219 -60.28613281 -10.7890625 C-38.41109471 -12.80743423 -19.50997284 -10.29693011 0 0 Z " fill="#3A3A3A" transform="translate(152,288)"/>
<path d="M0 0 C1.98828125 1.0703125 1.98828125 1.0703125 4.98828125 3.0703125 C3.98828125 6.0703125 3.98828125 6.0703125 1.87890625 7.421875 C1.0075 7.84210938 0.13609375 8.26234375 -0.76171875 8.6953125 C-1.6228125 9.12070312 -2.48390625 9.54609375 -3.37109375 9.984375 C-12.06790665 13.56087498 -20.47443803 12.44253839 -29.01171875 9.0703125 C-31.29281597 7.88903001 -33.00395168 6.70822774 -35.01171875 5.0703125 C-35.01171875 4.4103125 -35.01171875 3.7503125 -35.01171875 3.0703125 C-33.40881345 2.25532688 -31.80434597 1.44341323 -30.19921875 0.6328125 C-29.30589844 0.18035156 -28.41257813 -0.27210938 -27.4921875 -0.73828125 C-18.78738033 -4.91933036 -8.61534249 -3.90948315 0 0 Z " fill="#2C2C2C" transform="translate(187.01171875,289.9296875)"/>
<path d="M0 0 C2.07865804 1.59530324 4.03005793 3.26811739 6 5 C2.20653683 6.26448772 1.57300131 5.52997625 -1.9375 3.8125 C-22.5125301 -4.98781156 -46.02126107 -4.86565328 -67.828125 -1.4375 C-70.93046286 -1.00959133 -73.87299306 -0.92419377 -77 -1 C-73.6780035 -3.87906363 -70.52888849 -4.91679268 -66.3125 -6.0625 C-65.15363281 -6.38347656 -63.99476562 -6.70445312 -62.80078125 -7.03515625 C-60.91939453 -7.51275391 -60.91939453 -7.51275391 -59 -8 C-58.32412842 -8.18312744 -57.64825684 -8.36625488 -56.9519043 -8.55493164 C-37.37625698 -13.4846217 -17.17346952 -10.18765141 0 0 Z " fill="#3A3A3A" transform="translate(149,276)"/>
<path d="M0 0 C0 0.33 0 0.66 0 1 C-1.8126345 0.85584802 -3.62510022 0.70957364 -5.4375 0.5625 C-6.95150391 0.44068359 -6.95150391 0.44068359 -8.49609375 0.31640625 C-10.32809642 0.15097457 -12.16024343 -0.01995901 -13.9855957 -0.24731445 C-34.96613601 -2.85948323 -57.5011443 -2.28997101 -76.78515625 7.14453125 C-79 8 -79 8 -82 7 C-58.36976454 -12.47306441 -27.21794774 -12.19621574 0 0 Z " fill="#383838" transform="translate(270,274)"/>
<path d="M0 0 C3.63 0 7.26 0 11 0 C11 0.99 11 1.98 11 3 C8.36 3 5.72 3 3 3 C3 4.32 3 5.64 3 7 C5.64 7 8.28 7 11 7 C10.67 7.99 10.34 8.98 10 10 C7.69 10 5.38 10 3 10 C3 11.32 3 12.64 3 14 C5.97 14 8.94 14 12 14 C14.31 9.38 16.62 4.76 19 0 C19.99 0 20.98 0 22 0 C25.465 7.92 25.465 7.92 29 16 C27.68 16.33 26.36 16.66 25 17 C24.67 16.01 24.34 15.02 24 14 C21.36 13.67 18.72 13.34 16 13 C15.67 14.32 15.34 15.64 15 17 C10.05 17 5.1 17 0 17 C0 11.39 0 5.78 0 0 Z M20 5 C19.34 6.65 18.68 8.3 18 10 C19.32 10 20.64 10 22 10 C21.67 8.35 21.34 6.7 21 5 C20.67 5 20.34 5 20 5 Z " fill="#666666" transform="translate(802,366)"/>
<path d="M0 0 C2.475 0.495 2.475 0.495 5 1 C6.88042897 4.50148842 8 7.0080306 8 11 C8.66 11 9.32 11 10 11 C10.1546875 9.948125 10.1546875 9.948125 10.3125 8.875 C11.09359003 5.60862353 12.42058743 2.9528148 14 0 C15.32 0 16.64 0 18 0 C18 5.61 18 11.22 18 17 C17.01 17 16.02 17 15 17 C14.67 14.03 14.34 11.06 14 8 C12.68 10.97 11.36 13.94 10 17 C7 16 7 16 6.05078125 14.15234375 C5.3671875 12.1015625 4.68359375 10.05078125 4 8 C3.67 10.97 3.34 13.94 3 17 C2.01 17 1.02 17 0 17 C0 11.39 0 5.78 0 0 Z " fill="#525252" transform="translate(712,366)"/>
<path d="M0 0 C0.99 0 1.98 0 3 0 C3.99 2.97 4.98 5.94 6 9 C6.99 6.03 7.98 3.06 9 0 C10.32 0 11.64 0 13 0 C13.66 3.3 14.32 6.6 15 10 C15.66 10 16.32 10 17 10 C17.144375 8.72125 17.28875 7.4425 17.4375 6.125 C17.70642746 3.74307106 17.92226346 2.15547309 19 0 C19.99 0 20.98 0 22 0 C20.96232949 6.06732052 19.66038099 11.4373852 17 17 C16.01 17 15.02 17 14 17 C13.01 13.7 12.02 10.4 11 7 C9.68 10.3 8.36 13.6 7 17 C6.01 17 5.02 17 4 17 C3.32635339 14.91891315 2.66133202 12.8350329 2 10.75 C1.62875 9.58984375 1.2575 8.4296875 0.875 7.234375 C0 4 0 4 0 0 Z " fill="#404040" transform="translate(564,366)"/>
<path d="M0 0 C0 0.33 0 0.66 0 1 C-15.84 1 -31.68 1 -48 1 C-48 0.34 -48 -0.32 -48 -1 C-31.88676125 -4.60013794 -15.83002575 -5.33257223 0 0 Z " fill="#5B5B5B" transform="translate(135,291)"/>
<path d="M0 0 C0.495 0.99 0.495 0.99 1 2 C-14.84 2 -30.68 2 -47 2 C-35.26874079 -5.82083947 -12.86070816 -4.46187834 0 0 Z " fill="#5B5B5B" transform="translate(255,290)"/>
<path d="M0 0 C1.32 0 2.64 0 4 0 C5.921875 2.40625 5.921875 2.40625 7.75 5.5 C8.67039062 7.03140625 8.67039062 7.03140625 9.609375 8.59375 C10.06828125 9.3878125 10.5271875 10.181875 11 11 C11.33 7.37 11.66 3.74 12 0 C12.99 0 13.98 0 15 0 C15 5.61 15 11.22 15 17 C10 16 10 16 8.19921875 13.93359375 C7.70035156 13.10988281 7.20148437 12.28617187 6.6875 11.4375 C6.17574219 10.61121094 5.66398438 9.78492188 5.13671875 8.93359375 C4.76160156 8.29550781 4.38648438 7.65742188 4 7 C3.67 10.3 3.34 13.6 3 17 C2.01 17 1.02 17 0 17 C0 11.39 0 5.78 0 0 Z " fill="#606060" transform="translate(871,366)"/>
<path d="M0 0 C1.32 0 2.64 0 4 0 C5.921875 2.40625 5.921875 2.40625 7.75 5.5 C8.67039062 7.03140625 8.67039062 7.03140625 9.609375 8.59375 C10.06828125 9.3878125 10.5271875 10.181875 11 11 C11.33 7.37 11.66 3.74 12 0 C12.99 0 13.98 0 15 0 C15 5.61 15 11.22 15 17 C10 16 10 16 8.19921875 13.93359375 C7.70035156 13.10988281 7.20148437 12.28617187 6.6875 11.4375 C6.17574219 10.61121094 5.66398438 9.78492188 5.13671875 8.93359375 C4.76160156 8.29550781 4.38648438 7.65742188 4 7 C3.67 10.3 3.34 13.6 3 17 C2.01 17 1.02 17 0 17 C0 11.39 0 5.78 0 0 Z " fill="#545454" transform="translate(676,366)"/>
<path d="M0 0 C5 1 5 1 6.80078125 3.06640625 C7.29964844 3.89011719 7.79851563 4.71382813 8.3125 5.5625 C8.82425781 6.38878906 9.33601562 7.21507812 9.86328125 8.06640625 C10.23839844 8.70449219 10.61351562 9.34257812 11 10 C11.33 6.7 11.66 3.4 12 0 C12.99 0 13.98 0 15 0 C15 5.61 15 11.22 15 17 C13.68 17 12.36 17 11 17 C9.078125 14.8125 9.078125 14.8125 7.25 12 C6.32960938 10.6078125 6.32960938 10.6078125 5.390625 9.1875 C4.93171875 8.465625 4.4728125 7.74375 4 7 C3.67 10.3 3.34 13.6 3 17 C2.01 17 1.02 17 0 17 C0 11.39 0 5.78 0 0 Z " fill="#555555" transform="translate(846,366)"/>
<path d="M0 0 C2.4375 1 2.4375 1 4 3 C5.08745801 7.49482645 5.57436819 9.71450929 3.6875 13.9375 C2 16 2 16 0 17 C-7.10601719 17.5730659 -7.10601719 17.5730659 -10.4375 15.4375 C-12.49240979 12.23184073 -12.86470518 9.78825503 -13 6 C-10.96155894 -0.28519328 -5.92081403 -0.72816463 0 0 Z M-7.6875 4.1875 C-10.29866029 6.73938518 -10.29866029 6.73938518 -9.9375 9.6875 C-9.11696579 12.1427942 -9.11696579 12.1427942 -7 14 C-4.04230823 14.50010524 -4.04230823 14.50010524 -1 14 C1.0785608 12.42304368 1.0785608 12.42304368 2 10 C2.08024658 7.40110217 2.08024658 7.40110217 1 5 C-2.5006102 1.72523562 -3.81287277 1.03373365 -7.6875 4.1875 Z " fill="#727272" transform="translate(646,366)"/>
<path d="M0 0 C9.08256881 -0.60550459 9.08256881 -0.60550459 13.125 2.0625 C15.4780487 5.74894297 15.70341469 7.70135466 15 12 C13.13291495 14.36497439 11.67938569 15.66030715 9 17 C5.99525503 17.13559318 3.00931153 17.04299016 0 17 C0 11.39 0 5.78 0 0 Z M3 3 C3 6.63 3 10.26 3 14 C7.13108746 14.30977972 7.13108746 14.30977972 10.9375 12.9375 C12.64787795 9.81857551 11.80513863 7.34442199 11 4 C8.29120665 2.64560332 5.99066732 2.93498549 3 3 Z " fill="#202020" transform="translate(766,366)"/>
<path d="M0 0 C0.66 0.33 1.32 0.66 2 1 C1.67 1.99 1.34 2.98 1 4 C-0.093125 3.773125 -1.18625 3.54625 -2.3125 3.3125 C-5.8386815 2.65875821 -5.8386815 2.65875821 -7.9375 4.125 C-9.39247229 6.69259815 -9.58013321 8.09933393 -9 11 C-5.72821183 13.63560713 -4.27931853 14 0 14 C0 12.68 0 11.36 0 10 C-1.32 10 -2.64 10 -4 10 C-4 9.01 -4 8.02 -4 7 C-1.69 7 0.62 7 3 7 C3 9.97 3 12.94 3 16 C-0.48660044 17.74330022 -4.19592935 17.5706106 -8 17 C-11.0625 14.9375 -11.0625 14.9375 -13 12 C-13.7878128 7.5882483 -13.52975133 5.77807226 -11 2.0625 C-6.92969005 -0.73583809 -4.86254774 -0.47828338 0 0 Z " fill="#282828" transform="translate(901,366)"/>
<path d="M0 0 C1.21816406 0.03480469 1.21816406 0.03480469 2.4609375 0.0703125 C3.68683594 0.09738281 3.68683594 0.09738281 4.9375 0.125 C5.87722656 0.15980469 5.87722656 0.15980469 6.8359375 0.1953125 C7.1659375 1.5153125 7.4959375 2.8353125 7.8359375 4.1953125 C6.7428125 3.9890625 5.6496875 3.7828125 4.5234375 3.5703125 C0.7520974 2.79184725 0.7520974 2.79184725 -2.1640625 5.1953125 C-2.41422123 8.77888491 -2.41422123 8.77888491 -2.1640625 12.1953125 C0.74194011 13.45196228 2.63198334 14.1953125 5.8359375 14.1953125 C5.8359375 12.8753125 5.8359375 11.5553125 5.8359375 10.1953125 C4.5159375 10.1953125 3.1959375 10.1953125 1.8359375 10.1953125 C1.8359375 9.2053125 1.8359375 8.2153125 1.8359375 7.1953125 C4.1459375 7.1953125 6.4559375 7.1953125 8.8359375 7.1953125 C8.86282966 8.67438142 8.88228371 10.15358733 8.8984375 11.6328125 C8.91003906 12.45652344 8.92164063 13.28023438 8.93359375 14.12890625 C8.8359375 16.1953125 8.8359375 16.1953125 7.8359375 17.1953125 C3.34949969 17.76075198 -0.15029149 17.74443846 -4.1640625 15.5703125 C-6.62812112 12.64424289 -7.1640625 11.01354129 -7.1640625 7.1953125 C-3.89783597 0.35179025 -3.89783597 0.35179025 0 0 Z " fill="#717171" transform="translate(512.1640625,365.8046875)"/>
<path d="M0 0 C2.5 1.4375 2.5 1.4375 4 4 C4.76004105 8.31481639 4.73570183 11.74317604 2.5 15.5625 C-1.00246578 17.57641782 -4.12143713 17.87555677 -8 17 C-11 14.9375 -11 14.9375 -13 12 C-13.7878128 7.5882483 -13.52975133 5.77807226 -11 2.0625 C-6.84919686 -0.79117716 -4.9698922 -0.7099846 0 0 Z M-8.25 3.5625 C-10.39858007 6.00982848 -10.39858007 6.00982848 -9.75 9.75 C-9.5025 10.8225 -9.255 11.895 -9 13 C-6.78223378 14.30514736 -6.78223378 14.30514736 -4 15 C-1.07163629 14.24300635 -1.07163629 14.24300635 1 12 C1.75 8.5 1.75 8.5 1 5 C-0.69164222 2.95970404 -0.69164222 2.95970404 -3 2 C-6.04586933 1.7148021 -6.04586933 1.7148021 -8.25 3.5625 Z " fill="#2E2E2E" transform="translate(463,366)"/>
<path d="M0 0 C1.423125 -0.061875 2.84625 -0.12375 4.3125 -0.1875 C5.51326172 -0.23970703 5.51326172 -0.23970703 6.73828125 -0.29296875 C9 0 9 0 10.8046875 1.3515625 C12 3 12 3 11.8125 5.5625 C11 8 11 8 9 10 C9.7425 11.175625 9.7425 11.175625 10.5 12.375 C12 15 12 15 12 17 C10.1875 16.8125 10.1875 16.8125 8 16 C6.375 13.5 6.375 13.5 5 11 C4.34 10.67 3.68 10.34 3 10 C3 12.31 3 14.62 3 17 C2.01 17 1.02 17 0 17 C0 11.39 0 5.78 0 0 Z M3 3 C3 4.32 3 5.64 3 7 C4.65 7 6.3 7 8 7 C8 5.68 8 4.36 8 3 C6.35 3 4.7 3 3 3 Z " fill="#5E5E5E" transform="translate(832,366)"/>
<path d="M0 0 C1.423125 -0.061875 2.84625 -0.12375 4.3125 -0.1875 C5.51326172 -0.23970703 5.51326172 -0.23970703 6.73828125 -0.29296875 C9 0 9 0 10.8046875 1.3515625 C12 3 12 3 11.8125 5.5625 C11 8 11 8 9 10 C9.7425 11.175625 9.7425 11.175625 10.5 12.375 C12 15 12 15 12 17 C10.1875 16.8125 10.1875 16.8125 8 16 C6.375 13.5 6.375 13.5 5 11 C4.34 10.67 3.68 10.34 3 10 C3 12.31 3 14.62 3 17 C2.01 17 1.02 17 0 17 C0 11.39 0 5.78 0 0 Z M3 3 C3 4.32 3 5.64 3 7 C4.65 7 6.3 7 8 7 C8 5.68 8 4.36 8 3 C6.35 3 4.7 3 3 3 Z " fill="#5C5C5C" transform="translate(486,366)"/>
<path d="M0 0 C3.96 0 7.92 0 12 0 C12 0.99 12 1.98 12 3 C9.03 3 6.06 3 3 3 C3 4.32 3 5.64 3 7 C5.64 7 8.28 7 11 7 C11 7.99 11 8.98 11 10 C8.36 10 5.72 10 3 10 C3 11.32 3 12.64 3 14 C5.97 14 8.94 14 12 14 C12 14.99 12 15.98 12 17 C10.18757948 17.02687279 8.37504767 17.04633715 6.5625 17.0625 C5.55316406 17.07410156 4.54382813 17.08570313 3.50390625 17.09765625 C1 17 1 17 0 16 C-0.07319621 13.30345146 -0.09242537 10.63308542 -0.0625 7.9375 C-0.05798828 7.17888672 -0.05347656 6.42027344 -0.04882812 5.63867188 C-0.0370068 3.75908129 -0.01907078 1.87953101 0 0 Z " fill="#515151" transform="translate(551,366)"/>
<path d="M0 0 C1.32 0.33 2.64 0.66 4 1 C5.28902399 3.33857333 6.2915507 5.47047105 7.25 7.9375 C7.518125 8.58396484 7.78625 9.23042969 8.0625 9.89648438 C10 14.65621014 10 14.65621014 10 17 C8.0625 16.625 8.0625 16.625 6 16 C5.67 15.34 5.34 14.68 5 14 C2.69 14 0.38 14 -2 14 C-2.33 14.99 -2.66 15.98 -3 17 C-4.32 16.67 -5.64 16.34 -7 16 C-4.69 10.72 -2.38 5.44 0 0 Z M1 5 C0.34 6.65 -0.32 8.3 -1 10 C0.65 10 2.3 10 4 10 C3.34 8.35 2.68 6.7 2 5 C1.67 5 1.34 5 1 5 Z " fill="#202020" transform="translate(529,366)"/>
<path d="M0 0 C0.99 0 1.98 0 3 0 C5.31 5.28 7.62 10.56 10 16 C8.68 16.33 7.36 16.66 6 17 C5.67 16.01 5.34 15.02 5 14 C1.58357241 13.74984127 1.58357241 13.74984127 -2 14 C-2.99 15.485 -2.99 15.485 -4 17 C-4.99 17 -5.98 17 -7 17 C-5.1668733 11.00067626 -2.92678249 5.55079437 0 0 Z M1 5 C0.34 6.65 -0.32 8.3 -1 10 C0.32 10 1.64 10 3 10 C2.67 8.35 2.34 6.7 2 5 C1.67 5 1.34 5 1 5 Z " fill="#6B6B6B" transform="translate(592,366)"/>
<path d="M0 0 C3.63 0 7.26 0 11 0 C11 0.99 11 1.98 11 3 C8.36 3 5.72 3 3 3 C3 4.32 3 5.64 3 7 C5.31 7 7.62 7 10 7 C10 7.99 10 8.98 10 10 C7.69 10 5.38 10 3 10 C3 11.32 3 12.64 3 14 C5.64 14 8.28 14 11 14 C11 14.99 11 15.98 11 17 C7.37 17 3.74 17 0 17 C0 11.39 0 5.78 0 0 Z " fill="#444444" transform="translate(753,366)"/>
<path d="M0 0 C0.99 0 1.98 0 3 0 C3.33 4.29 3.66 8.58 4 13 C5.65 13.33 7.3 13.66 9 14 C9.33 9.38 9.66 4.76 10 0 C10.99 0 11.98 0 13 0 C13.08126087 2.08268593 13.13930839 4.16628658 13.1875 6.25 C13.22230469 7.41015625 13.25710938 8.5703125 13.29296875 9.765625 C12.97684247 13.25565911 12.53307633 14.61763301 10 17 C4.15652174 17.73043478 4.15652174 17.73043478 1.29296875 15.921875 C-0.70383724 12.95381292 -0.28437514 10.33229692 -0.1875 6.8125 C-0.16042969 5.54019531 -0.13335937 4.26789063 -0.10546875 2.95703125 C-0.07066406 1.98121094 -0.03585937 1.00539063 0 0 Z " fill="#434343" transform="translate(470,366)"/>
<path d="M0 0 C0.99 0 1.98 0 3 0 C3.33 4.62 3.66 9.24 4 14 C5.98 14 7.96 14 10 14 C10.33 9.38 10.66 4.76 11 0 C11.99 0 12.98 0 14 0 C14.08160748 1.89510699 14.13946459 3.79124504 14.1875 5.6875 C14.22230469 6.74324219 14.25710938 7.79898437 14.29296875 8.88671875 C13.96089086 12.41559978 13.20736121 14.24206128 11 17 C6.60907888 17.54886514 4.71499122 17.47666082 1 15 C-0.09506492 11.71480525 -0.09960608 9.26336585 -0.0625 5.8125 C-0.05347656 4.72582031 -0.04445313 3.63914062 -0.03515625 2.51953125 C-0.02355469 1.68808594 -0.01195312 0.85664063 0 0 Z " fill="#383838" transform="translate(659,366)"/>
<path d="M0 0 C1.875 0.1875 1.875 0.1875 4 1 C5.25 3.5625 5.25 3.5625 6 6 C6.66 6 7.32 6 8 6 C8.37125 4.7934375 8.37125 4.7934375 8.75 3.5625 C10 1 10 1 12.125 0.1875 C12.74375 0.125625 13.3625 0.06375 14 0 C12.87548273 2.9719385 11.77706209 5.33440687 10 8 C9.54605448 10.27912938 9.54605448 10.27912938 9.375 12.6875 C9.30023438 13.49574219 9.22546875 14.30398438 9.1484375 15.13671875 C9.09945313 15.75160156 9.05046875 16.36648438 9 17 C8.01 17 7.02 17 6 17 C5.90203125 16.41992188 5.8040625 15.83984375 5.703125 15.2421875 C4.67307452 9.8610617 3.22221079 6.40368808 0 2 C0 1.34 0 0.68 0 0 Z " fill="#4C4C4C" transform="translate(435,366)"/>
<path d="M0 0 C1.875 0.1875 1.875 0.1875 4 1 C5.25 3.5625 5.25 3.5625 6 6 C6.66 6 7.32 6 8 6 C8.37125 4.7934375 8.37125 4.7934375 8.75 3.5625 C10 1 10 1 12.125 0.1875 C12.74375 0.125625 13.3625 0.06375 14 0 C13.00790606 2.67102214 12.00824802 4.98746301 10.4375 7.375 C8.68594884 10.57348473 8.35324922 13.39685799 8 17 C7.01 17 6.02 17 5 17 C4.89042969 16.33613281 4.78085937 15.67226563 4.66796875 14.98828125 C3.77839831 10.03416944 2.89625691 6.21273732 0 2 C0 1.34 0 0.68 0 0 Z " fill="#464646" transform="translate(599,366)"/>
<path d="M0 0 C4.62 0 9.24 0 14 0 C14 0.99 14 1.98 14 3 C12.02 3 10.04 3 8 3 C8 7.62 8 12.24 8 17 C7.01 17 6.02 17 5 17 C5 12.38 5 7.76 5 3 C3.35 3 1.7 3 0 3 C0 2.01 0 1.02 0 0 Z " fill="#4A4A4A" transform="translate(619,366)"/>
<path d="M0 0 C4.62 0 9.24 0 14 0 C14 0.99 14 1.98 14 3 C12.35 3 10.7 3 9 3 C9 7.62 9 12.24 9 17 C8.01 17 7.02 17 6 17 C6 12.38 6 7.76 6 3 C4.35 3 2.7 3 1 3 C0.67 2.01 0.34 1.02 0 0 Z " fill="#494949" transform="translate(536,366)"/>
<path d="M0 0 C4.29 0 8.58 0 13 0 C13 0.99 13 1.98 13 3 C11.35 3 9.7 3 8 3 C8 7.62 8 12.24 8 17 C7.01 17 6.02 17 5 17 C5 12.38 5 7.76 5 3 C3.35 3 1.7 3 0 3 C0 2.01 0 1.02 0 0 Z " fill="#444444" transform="translate(738,366)"/>
<path d="M0 0 C0.99 0 1.98 0 3 0 C3 4.62 3 9.24 3 14 C5.31 14 7.62 14 10 14 C10 14.99 10 15.98 10 17 C6.7 17 3.4 17 0 17 C0 11.39 0 5.78 0 0 Z " fill="#4C4C4C" transform="translate(694,366)"/>
<path d="M0 0 C0.99 0 1.98 0 3 0 C3 4.62 3 9.24 3 14 C5.31 14 7.62 14 10 14 C10 14.99 10 15.98 10 17 C6.7 17 3.4 17 0 17 C0 11.39 0 5.78 0 0 Z " fill="#4C4C4C" transform="translate(790,366)"/>
<path d="M0 0 C3.31317555 0.26863586 4.63876354 0.59059868 6.875 3.125 C8.35604984 6.90990516 8.06348054 9.10057134 7 13 C5.0625 15.4375 5.0625 15.4375 3 17 C2.34 17 1.68 17 1 17 C1 16.34 1 15.68 1 15 C-0.65 15 -2.3 15 -4 15 C-4 14.67 -4 14.34 -4 14 C-1.69 13.34 0.62 12.68 3 12 C3.85974801 9.70705512 3.85974801 9.70705512 4 7 C2.10413616 4.85410577 2.10413616 4.85410577 0 3 C0 2.01 0 1.02 0 0 Z " fill="#666666" transform="translate(643,366)"/>
<path d="M0 0 C2.97 0 5.94 0 9 0 C9 0.33 9 0.66 9 1 C6.69 1 4.38 1 2 1 C2 2.65 2 4.3 2 6 C4.64 6 7.28 6 10 6 C9.67 6.99 9.34 7.98 9 9 C6.69 9 4.38 9 2 9 C2 10.65 2 12.3 2 14 C4.64 14 7.28 14 10 14 C10 14.33 10 14.66 10 15 C6.7 15 3.4 15 0 15 C0 10.05 0 5.1 0 0 Z " fill="#323232" transform="translate(803,367)"/>
<path d="M0 0 C2.31 0 4.62 0 7 0 C7 0.33 7 0.66 7 1 C5.02 1 3.04 1 1 1 C1.33 2.65 1.66 4.3 2 6 C2.7425 6.020625 3.485 6.04125 4.25 6.0625 C7.38468185 7.13114154 7.71680802 7.68078482 9.3125 10.4375 C11 14 11 14 11 16 C9.1875 15.8125 9.1875 15.8125 7 15 C5.96986723 13.35178756 4.96885372 11.68496298 4 10 C3.01 9.67 2.02 9.34 1 9 C1 10.98 1 12.96 1 15 C0.67 15 0.34 15 0 15 C0 10.05 0 5.1 0 0 Z " fill="#121212" transform="translate(833,367)"/>
<path d="M0 0 C2.31 0 4.62 0 7 0 C7 0.33 7 0.66 7 1 C5.02 1 3.04 1 1 1 C1.33 2.65 1.66 4.3 2 6 C2.7425 6.020625 3.485 6.04125 4.25 6.0625 C7.38468185 7.13114154 7.71680802 7.68078482 9.3125 10.4375 C11 14 11 14 11 16 C9.1875 15.8125 9.1875 15.8125 7 15 C5.96986723 13.35178756 4.96885372 11.68496298 4 10 C3.01 9.67 2.02 9.34 1 9 C1 10.98 1 12.96 1 15 C0.67 15 0.34 15 0 15 C0 10.05 0 5.1 0 0 Z " fill="#121212" transform="translate(487,367)"/>
<path d="M0 0 C0.99 0 1.98 0 3 0 C3.08126087 2.08268593 3.13930839 4.16628658 3.1875 6.25 C3.22230469 7.41015625 3.25710938 8.5703125 3.29296875 9.765625 C2.97927287 13.22882755 2.46132762 14.59230906 0 17 C-0.66 17 -1.32 17 -2 17 C-2.33 16.01 -2.66 15.02 -3 14 C-2.34 14 -1.68 14 -1 14 C-0.67 9.38 -0.34 4.76 0 0 Z " fill="#4C4C4C" transform="translate(480,366)"/>
<path d="M0 0 C1.588125 -0.061875 3.17625 -0.12375 4.8125 -0.1875 C6.15248047 -0.23970703 6.15248047 -0.23970703 7.51953125 -0.29296875 C10.41647515 0.04918998 11.22555028 0.75393573 13 3 C12.01 4.485 12.01 4.485 11 6 C11 5.34 11 4.68 11 4 C9.081875 3.814375 9.081875 3.814375 7.125 3.625 C3.25 3.25 3.25 3.25 1 1 C1 5.95 1 10.9 1 16 C3.64 16 6.28 16 9 16 C9 16.33 9 16.66 9 17 C6.03 17 3.06 17 0 17 C0 11.39 0 5.78 0 0 Z " fill="#7D7D7D" transform="translate(766,366)"/>
<path d="M0 0 C0.99 0 1.98 0 3 0 C3.66 1.98 4.32 3.96 5 6 C4.01 6.33 3.02 6.66 2 7 C1.67 6.67 1.34 6.34 1 6 C0.67 6.99 0.34 7.98 0 9 C0.99 9.33 1.98 9.66 3 10 C3.33 9.34 3.66 8.68 4 8 C4 8.99 4 9.98 4 11 C-1.75 11.125 -1.75 11.125 -4 10 C-3.52449439 8.51965236 -3.04448784 7.04074979 -2.5625 5.5625 C-2.29566406 4.73878906 -2.02882813 3.91507812 -1.75390625 3.06640625 C-1 1 -1 1 0 0 Z " fill="#686868" transform="translate(821,366)"/>
<path d="M0 0 C0.99 0 1.98 0 3 0 C3 5.61 3 11.22 3 17 C2.01 17 1.02 17 0 17 C0 11.39 0 5.78 0 0 Z " fill="#4C4C4C" transform="translate(706,366)"/>
<path d="M0 0 C1.890625 0.21484375 1.890625 0.21484375 4 1 C5.046875 3.06640625 5.046875 3.06640625 5.75 5.5625 C5.99234375 6.38878906 6.2346875 7.21507812 6.484375 8.06640625 C6.65453125 8.70449219 6.8246875 9.34257812 7 10 C4.29120665 11.35439668 1.99066732 11.06501451 -1 11 C0.32 10.34 1.64 9.68 3 9 C2.67 8.01 2.34 7.02 2 6 C1.01 6.495 1.01 6.495 0 7 C-0.66 6.67 -1.32 6.34 -2 6 C-1.34 4.02 -0.68 2.04 0 0 Z " fill="#6A6A6A" transform="translate(529,366)"/>
<path d="M0 0 C0.99 0 1.98 0 3 0 C3 5.61 3 11.22 3 17 C2.01 17 1.02 17 0 17 C0 11.39 0 5.78 0 0 Z " fill="#4C4C4C" transform="translate(864,366)"/>
<path d="M0 0 C0.99 0 1.98 0 3 0 C3 5.61 3 11.22 3 17 C2.01 17 1.02 17 0 17 C0 11.39 0 5.78 0 0 Z " fill="#4C4C4C" transform="translate(733,366)"/>
<path d="M0 0 C0.99 0 1.98 0 3 0 C3.04898438 0.99902344 3.09796875 1.99804688 3.1484375 3.02734375 C3.22320313 4.31769531 3.29796875 5.60804688 3.375 6.9375 C3.44460938 8.22527344 3.51421875 9.51304687 3.5859375 10.83984375 C3.72257813 11.88269531 3.85921875 12.92554688 4 14 C4.66 14.33 5.32 14.66 6 15 C4.68 15.33 3.36 15.66 2 16 C-0.14336161 12.5233662 -0.21277626 9.78770805 -0.125 5.75 C-0.10695313 4.67234375 -0.08890625 3.5946875 -0.0703125 2.484375 C-0.04710937 1.66453125 -0.02390625 0.8446875 0 0 Z " fill="#4B4B4B" transform="translate(659,366)"/>
<path d="M0 0 C2.31 0 4.62 0 7 0 C7 2.97 7 5.94 7 9 C5.68 9.33 4.36 9.66 3 10 C3 9.34 3 8.68 3 8 C2.34 7.67 1.68 7.34 1 7 C1.99 7 2.98 7 4 7 C4 5.68 4 4.36 4 3 C2.68 3 1.36 3 0 3 C0 2.01 0 1.02 0 0 Z " fill="#5B5B5B" transform="translate(514,373)"/>
<path d="M0 0 C4.29 0 8.58 0 13 0 C13.66 1.98 14.32 3.96 15 6 C13.68 6 12.36 6 11 6 C10.67 5.01 10.34 4.02 10 3 C6.58357241 2.74984127 6.58357241 2.74984127 3 3 C2.01 4.485 2.01 4.485 1 6 C0.01 6 -0.98 6 -2 6 C-1.34 4.02 -0.68 2.04 0 0 Z " fill="#626262" transform="translate(587,377)"/>
<path d="M0 0 C0.33 0 0.66 0 1 0 C1.185625 1.093125 1.37125 2.18625 1.5625 3.3125 C2.57516528 6.9490498 2.57516528 6.9490498 4.69140625 8.1328125 C6.83650143 9.05926212 6.83650143 9.05926212 10 10 C10 10.66 10 11.32 10 12 C6.32823991 12.34155908 4.41971069 12.24249951 1.1875 10.375 C-1.43459697 7.52815186 -1.916552 5.83860799 -2 2 C-1.34 1.34 -0.68 0.68 0 0 Z " fill="#333333" transform="translate(507,371)"/>
<path d="M0 0 C2.31 0 4.62 0 7 0 C7 2.97 7 5.94 7 9 C5.68 9.33 4.36 9.66 3 10 C3 9.34 3 8.68 3 8 C2.34 7.67 1.68 7.34 1 7 C1.99 7 2.98 7 4 7 C4 5.68 4 4.36 4 3 C2.68 3 1.36 3 0 3 C0 2.01 0 1.02 0 0 Z " fill="#5B5B5B" transform="translate(897,373)"/>
<path d="M0 0 C1.32 0 2.64 0 4 0 C4.33 1.65 4.66 3.3 5 5 C4.34 5 3.68 5 3 5 C2.67 8.63 2.34 12.26 2 16 C1.34 16 0.68 16 0 16 C0 10.72 0 5.44 0 0 Z " fill="#1B1B1B" transform="translate(871,366)"/>
<path d="M0 0 C7.22891566 -0.48192771 7.22891566 -0.48192771 10.5 1.5625 C12.50478781 4.82028019 12.28862859 7.24782833 12 11 C10 10 10 10 9.0625 7.5625 C8.15452711 4.70136041 8.15452711 4.70136041 5 3 C3.34450469 2.61500109 1.6777567 2.27206865 0 2 C0 1.34 0 0.68 0 0 Z " fill="#353535" transform="translate(455,366)"/>
<path d="M0 0 C1.62723299 0.45034123 3.25173664 0.91055354 4.875 1.375 C5.77992188 1.63023437 6.68484375 1.88546875 7.6171875 2.1484375 C10 3 10 3 12 5 C4.98475852 4.44210432 -2.00982196 3.81552077 -9 3 C-9 2.67 -9 2.34 -9 2 C-6.03 2 -3.06 2 0 2 C0 1.34 0 0.68 0 0 Z " fill="#666666" transform="translate(258,270)"/>
<path d="M0 0 C0 0.66 0 1.32 0 2 C-0.78375 2.433125 -1.5675 2.86625 -2.375 3.3125 C-5.41686215 5.26798281 -5.98981901 6.60211849 -7 10 C-7.66 10 -8.32 10 -9 10 C-9.32523926 6.42236811 -9.42956587 4.60457419 -7.3125 1.625 C-4.61209763 -0.27258004 -3.22939919 -0.35882213 0 0 Z " fill="#494949" transform="translate(643,366)"/>
<path d="M0 0 C0.99 0.33 1.98 0.66 3 1 C1.91663521 4.49084212 0.8952877 5.05521194 -2.4375 6.8125 C-6 8 -6 8 -9 7 C-7.57277341 5.8001722 -6.13284224 4.6154424 -4.6875 3.4375 C-3.88699219 2.77621094 -3.08648437 2.11492187 -2.26171875 1.43359375 C-1.51535156 0.96050781 -0.76898438 0.48742187 0 0 Z " fill="#545454" transform="translate(197,274)"/>
<path d="M0 0 C0.99 0 1.98 0 3 0 C5.42857143 7.42857143 5.42857143 7.42857143 4 11 C3.34 11 2.68 11 2 11 C0.80712589 7.12315913 0 4.08378077 0 0 Z " fill="#535353" transform="translate(564,366)"/>
<path d="M0 0 C2.97 1.32 5.94 2.64 9 4 C9 4.66 9 5.32 9 6 C2.6 6.49230769 2.6 6.49230769 -0.4375 4 C-0.953125 3.34 -1.46875 2.68 -2 2 C-1.34 2 -0.68 2 0 2 C0 1.34 0 0.68 0 0 Z " fill="#383838" transform="translate(891,377)"/>
<path d="M0 0 C0.99 0 1.98 0 3 0 C1.6302836 3.99500618 -0.25722422 6.80009492 -3 10 C-3.66 8.68 -4.32 7.36 -5 6 C-4.34 6 -3.68 6 -3 6 C-2.690625 5.195625 -2.38125 4.39125 -2.0625 3.5625 C-1 1 -1 1 0 0 Z " fill="#4C4C4C" transform="translate(610,366)"/>
<path d="M0 0 C1.875 0.1875 1.875 0.1875 4 1 C5.125 3.5 5.125 3.5 6 6 C6.66 6.33 7.32 6.66 8 7 C7.34 7 6.68 7 6 7 C5.67 7.99 5.34 8.98 5 10 C4.16121545 8.71186658 3.32913217 7.41936744 2.5 6.125 C2.0359375 5.40570313 1.571875 4.68640625 1.09375 3.9453125 C0 2 0 2 0 0 Z " fill="#5B5B5B" transform="translate(435,366)"/>
<path d="M0 0 C0.66 0.33 1.32 0.66 2 1 C1.67 1.33 1.34 1.66 1 2 C1.66 2.66 2.32 3.32 3 4 C-5.42857143 6.28571429 -5.42857143 6.28571429 -10 6 C-6.87511433 3.47605388 -3.68685613 1.60298093 0 0 Z " fill="#666666" transform="translate(201,283)"/>
<path d="M0 0 C1.76462683 3.08809695 2 4.23312136 2 8 C0.625 9.75 0.625 9.75 -1 11 C-1.66 11 -2.32 11 -3 11 C-3 10.34 -3 9.68 -3 9 C-3.66 8.67 -4.32 8.34 -5 8 C-4.0409375 7.690625 -4.0409375 7.690625 -3.0625 7.375 C-0.65074923 6.10461791 -0.65074923 6.10461791 -0.25 2.875 C-0.1675 1.92625 -0.085 0.9775 0 0 Z " fill="#585858" transform="translate(464,372)"/>
<path d="M0 0 C0 0.99 0 1.98 0 3 C-5.94 3.495 -5.94 3.495 -12 4 C-4 -2 -4 -2 0 0 Z " fill="#7D7D7D" transform="translate(84,271)"/>
<path d="M0 0 C0.33 0 0.66 0 1 0 C1.33 4.29 1.66 8.58 2 13 C1.01 13 0.02 13 -1 13 C-1.0272415 11.58344207 -1.04650467 10.16672955 -1.0625 8.75 C-1.07410156 7.96109375 -1.08570313 7.1721875 -1.09765625 6.359375 C-1.00385306 4.09308998 -0.63241063 2.1711105 0 0 Z " fill="#717171" transform="translate(244,165)"/>
<path d="M0 0 C0.99 0 1.98 0 3 0 C3 5.28 3 10.56 3 16 C2.67 16 2.34 16 2 16 C1.67 12.04 1.34 8.08 1 4 C0.01 4.495 0.01 4.495 -1 5 C-0.67 3.35 -0.34 1.7 0 0 Z " fill="#101010" transform="translate(726,366)"/>
<path d="M0 0 C1.66519519 0.34060811 3.33157466 0.67558396 5 1 C5 1.33 5 1.66 5 2 C-0.28 2 -5.56 2 -11 2 C-6.92923754 -0.71384164 -4.66500409 -1.4136376 0 0 Z " fill="#5B5B5B" transform="translate(219,290)"/>
<path d="M0 0 C0.33 0.66 0.66 1.32 1 2 C1.66 2.33 2.32 2.66 3 3 C1.71034824 4.37562854 0.37310707 5.70766393 -1 7 C-1.66 7 -2.32 7 -3 7 C-3 6.34 -3 5.68 -3 5 C-4.65 5 -6.3 5 -8 5 C-8 4.67 -8 4.34 -8 4 C-6.865625 3.71125 -5.73125 3.4225 -4.5625 3.125 C-3.386875 2.75375 -2.21125 2.3825 -1 2 C-0.67 1.34 -0.34 0.68 0 0 Z " fill="#696969" transform="translate(647,376)"/>
<path d="M0 0 C0.99 0 1.98 0 3 0 C3.33 1.65 3.66 3.3 4 5 C1.59454362 6.20272819 0.05003047 6.10071472 -2.625 6.0625 C-3.85089844 6.04896484 -3.85089844 6.04896484 -5.1015625 6.03515625 C-6.04128906 6.01775391 -6.04128906 6.01775391 -7 6 C-6.67 5.01 -6.34 4.02 -6 3 C-5.67 3.66 -5.34 4.32 -5 5 C-3.02 5 -1.04 5 1 5 C0.67 3.35 0.34 1.7 0 0 Z " fill="#191919" transform="translate(824,372)"/>
<path d="M0 0 C0.99 0 1.98 0 3 0 C3.33 1.65 3.66 3.3 4 5 C1.59454362 6.20272819 0.05003047 6.10071472 -2.625 6.0625 C-3.85089844 6.04896484 -3.85089844 6.04896484 -5.1015625 6.03515625 C-6.04128906 6.01775391 -6.04128906 6.01775391 -7 6 C-6.67 5.01 -6.34 4.02 -6 3 C-5.67 3.66 -5.34 4.32 -5 5 C-3.02 5 -1.04 5 1 5 C0.67 3.35 0.34 1.7 0 0 Z " fill="#171717" transform="translate(595,372)"/>
<path d="M0 0 C1.32 0.33 2.64 0.66 4 1 C3.67 2.32 3.34 3.64 3 5 C2.67 4.67 2.34 4.34 2 4 C1.67 7.63 1.34 11.26 1 15 C0.67 15 0.34 15 0 15 C0 10.05 0 5.1 0 0 Z " fill="#000000" transform="translate(677,367)"/>
<path d="M0 0 C2.64 1.98 5.28 3.96 8 6 C3.82412255 7.39195915 1.86525224 5.82323219 -2 4 C-1.34 2.68 -0.68 1.36 0 0 Z " fill="#6E6E6E" transform="translate(147,275)"/>
<path d="M0 0 C0.33 0 0.66 0 1 0 C1 4.95 1 9.9 1 15 C-0.32 14.67 -1.64 14.34 -3 14 C-2.67 13.01 -2.34 12.02 -2 11 C-1.34 11.33 -0.68 11.66 0 12 C0 8.04 0 4.08 0 0 Z " fill="#070707" transform="translate(859,367)"/>
<path d="M0 0 C0.99 0 1.98 0 3 0 C6 4.22222222 6 4.22222222 6 7 C4.125 6.6875 4.125 6.6875 2 6 C0 3 0 3 0 0 Z " fill="#4E4E4E" transform="translate(838,376)"/>
<path d="M0 0 C0.99 0 1.98 0 3 0 C6 4.22222222 6 4.22222222 6 7 C4.125 6.6875 4.125 6.6875 2 6 C0 3 0 3 0 0 Z " fill="#4F4F4F" transform="translate(492,376)"/>
<path d="M0 0 C0 2.97 0 5.94 0 9 C-0.99 8.67 -1.98 8.34 -3 8 C-3 5.69 -3 3.38 -3 1 C-1 0 -1 0 0 0 Z " fill="#373737" transform="translate(891,370)"/>
<path d="M0 0 C1.32 0.99 2.64 1.98 4 3 C2.79618552 5.49361571 1.54571278 7.68143083 0 10 C-0.74926071 6.33694766 -1.2380014 3.57644848 0 0 Z " fill="#5C5C5C" transform="translate(572,368)"/>
<path d="M0 0 C1.32 0 2.64 0 4 0 C4.33 2.31 4.66 4.62 5 7 C4.01 7.495 4.01 7.495 3 8 C0 3.375 0 3.375 0 0 Z " fill="#333333" transform="translate(573,366)"/>
<path d="M0 0 C0.66 0.33 1.32 0.66 2 1 C1.67 1.33 1.34 1.66 1 2 C1.66 2.66 2.32 3.32 3 4 C-0.3 4.33 -3.6 4.66 -7 5 C-4.51068299 2.51068299 -3.16125753 1.22371259 0 0 Z " fill="#737373" transform="translate(68,284)"/>
<path d="M0 0 C1.258125 -0.020625 2.51625 -0.04125 3.8125 -0.0625 C4.52019531 -0.07410156 5.22789062 -0.08570313 5.95703125 -0.09765625 C8 0 8 0 11 1 C11.6875 3.0625 11.6875 3.0625 12 5 C10.0625 4.625 10.0625 4.625 8 4 C7.67 3.34 7.34 2.68 7 2 C4.67843403 1.59270772 2.3431213 1.25561323 0 1 C0 0.67 0 0.34 0 0 Z " fill="#686868" transform="translate(527,378)"/>
<path d="M0 0 C2 2 2 2 2 5 C2.66 5 3.32 5 4 5 C4 5.66 4 6.32 4 7 C3.34 7 2.68 7 2 7 C1.67 7.99 1.34 8.98 1 10 C-0.83691257 6.21812119 -1.15837626 4.05431692 0 0 Z " fill="#464646" transform="translate(718,372)"/>
<path d="M0 0 C2.31 0 4.62 0 7 0 C7.33 1.32 7.66 2.64 8 4 C3.545 3.01 3.545 3.01 -1 2 C-0.67 1.34 -0.34 0.68 0 0 Z " fill="#393939" transform="translate(512,366)"/>
<path d="M0 0 C0.99 0 1.98 0 3 0 C1.92598892 2.91517292 1.22189824 4.77810176 -1 7 C-1.66 6.67 -2.32 6.34 -3 6 C-1.125 1.125 -1.125 1.125 0 0 Z " fill="#494949" transform="translate(446,366)"/>
<path d="M0 0 C1.485 0.99 1.485 0.99 3 2 C3.1875 4.625 3.1875 4.625 3 7 C2.01 7.33 1.02 7.66 0 8 C0 5.36 0 2.72 0 0 Z " fill="#2F2F2F" transform="translate(648,370)"/>
<path d="M0 0 C0.66 0 1.32 0 2 0 C2 0.99 2 1.98 2 3 C2.66 3 3.32 3 4 3 C4 3.99 4 4.98 4 6 C2.68 6.33 1.36 6.66 0 7 C-0.38133299 5.0085944 -0.71325582 3.00720923 -1 1 C-0.67 0.67 -0.34 0.34 0 0 Z " fill="#5F5F5F" transform="translate(577,373)"/>
<path d="M0 0 C0.33 0 0.66 0 1 0 C1 1.98 1 3.96 1 6 C-0.32 6.33 -1.64 6.66 -3 7 C-3 5.35 -3 3.7 -3 2 C-2.01 2.33 -1.02 2.66 0 3 C0 2.01 0 1.02 0 0 Z " fill="#2F2F2F" transform="translate(581,376)"/>
<path d="M0 0 C1.32 0.33 2.64 0.66 4 1 C4 3.31 4 5.62 4 8 C3.34 7.67 2.68 7.34 2 7 C1.26924352 4.6859378 0.59861742 2.35171131 0 0 Z " fill="#222222" transform="translate(463,369)"/>
<path d="M0 0 C0.66 0 1.32 0 2 0 C2 1.98 2 3.96 2 6 C0.68 5.67 -0.64 5.34 -2 5 C-1.34 3.35 -0.68 1.7 0 0 Z " fill="#525252" transform="translate(524,377)"/>
<path d="M0 0 C0.33 0.66 0.66 1.32 1 2 C-2.63 1.67 -6.26 1.34 -10 1 C-10 0.67 -10 0.34 -10 0 C-6.33291043 -0.94296589 -3.64653273 -1.11421833 0 0 Z " fill="#757575" transform="translate(281,287)"/>
<path d="M0 0 C0.66 0.66 1.32 1.32 2 2 C-1.96 1.67 -5.92 1.34 -10 1 C-10 0.67 -10 0.34 -10 0 C-6.31938873 -0.9464429 -3.66134991 -1.08850943 0 0 Z " fill="#7D7D7D" transform="translate(268,273)"/>
<path d="M0 0 C0.66 0 1.32 0 2 0 C1.67 1.98 1.34 3.96 1 6 C0.01 6.33 -0.98 6.66 -2 7 C-2 5.68 -2 4.36 -2 3 C-1.34 3 -0.68 3 0 3 C0 2.01 0 1.02 0 0 Z " fill="#323232" transform="translate(722,376)"/>
<path d="M0 0 C0.66 0.33 1.32 0.66 2 1 C1.67 2.65 1.34 4.3 1 6 C0.01 6 -0.98 6 -2 6 C-1.34 4.02 -0.68 2.04 0 0 Z " fill="#4F4F4F" transform="translate(587,377)"/>
<path d="M0 0 C1.32 1.65 2.64 3.3 4 5 C3.01 5.66 2.02 6.32 1 7 C-0.0625 5.1875 -0.0625 5.1875 -1 3 C-0.67 2.01 -0.34 1.02 0 0 Z " fill="#575757" transform="translate(681,369)"/>
<path d="M0 0 C0.93423645 3.01031744 1.04449911 3.86650268 0 7 C-0.66 7 -1.32 7 -2 7 C-2 5.02 -2 3.04 -2 1 C-1.34 0.67 -0.68 0.34 0 0 Z " fill="#232323" transform="translate(636,369)"/>
<path d="M0 0 C2.31 0.33 4.62 0.66 7 1 C7 1.66 7 2.32 7 3 C5.02 3 3.04 3 1 3 C0.67 2.01 0.34 1.02 0 0 Z " fill="#1C1C1C" transform="translate(637,380)"/>
<path d="M0 0 C0.99 0.99 1.98 1.98 3 3 C2.34 4.32 1.68 5.64 1 7 C0.01 5.35 -0.98 3.7 -2 2 C-1.34 2 -0.68 2 0 2 C0 1.34 0 0.68 0 0 Z " fill="#5B5B5B" transform="translate(854,373)"/>
<path d="M0 0 C1.32 0.33 2.64 0.66 4 1 C3.67 2.32 3.34 3.64 3 5 C2.01 4.34 1.02 3.68 0 3 C0 2.01 0 1.02 0 0 Z " fill="#2E2E2E" transform="translate(529,366)"/>
<path d="M0 0 C0.33 1.32 0.66 2.64 1 4 C1.66 4.33 2.32 4.66 3 5 C1.68 6.32 0.36 7.64 -1 9 C-0.67 6.03 -0.34 3.06 0 0 Z " fill="#757575" transform="translate(174,275)"/>
<path d="M0 0 C1.32 0.66 2.64 1.32 4 2 C2.68 2.99 1.36 3.98 0 5 C-0.66 4.67 -1.32 4.34 -2 4 C-1.34 2.68 -0.68 1.36 0 0 Z " fill="#5A5A5A" transform="translate(891,367)"/>
<path d="M0 0 C0.66 0.33 1.32 0.66 2 1 C1.01 2.485 1.01 2.485 0 4 C-1.65 3.67 -3.3 3.34 -5 3 C-3 1 -3 1 0 0 Z " fill="#707070" transform="translate(76,148)"/>
<path d="M0 0 C0.99 0 1.98 0 3 0 C3.33 1.32 3.66 2.64 4 4 C2.68 4 1.36 4 0 4 C0 2.68 0 1.36 0 0 Z " fill="#5B5B5B" transform="translate(827,379)"/>
<path d="M0 0 C0.66 0 1.32 0 2 0 C1.67 1.65 1.34 3.3 1 5 C0.01 5 -0.98 5 -2 5 C-1.34 3.35 -0.68 1.7 0 0 Z " fill="#313131" transform="translate(527,372)"/>
<path d="M0 0 C1.32 0.66 2.64 1.32 4 2 C2.68 2.99 1.36 3.98 0 5 C0 4.34 0 3.68 0 3 C-0.66 2.67 -1.32 2.34 -2 2 C-1.34 1.34 -0.68 0.68 0 0 Z " fill="#595959" transform="translate(453,367)"/>
<path d="M0 0 C1.32 0.33 2.64 0.66 4 1 C3.67 2.32 3.34 3.64 3 5 C1.5 3.625 1.5 3.625 0 2 C0 1.34 0 0.68 0 0 Z " fill="#161616" transform="translate(677,367)"/>
<path d="M0 0 C0.99 0 1.98 0 3 0 C2.34 1.65 1.68 3.3 1 5 C0.34 3.68 -0.32 2.36 -1 1 C-0.67 0.67 -0.34 0.34 0 0 Z " fill="#545454" transform="translate(610,366)"/>
<path d="M0 0 C0.66 0 1.32 0 2 0 C1.67 1.32 1.34 2.64 1 4 C1.99 4.33 2.98 4.66 4 5 C2.68 5 1.36 5 0 5 C0 4.34 0 3.68 0 3 C-0.66 2.67 -1.32 2.34 -2 2 C-1.34 1.34 -0.68 0.68 0 0 Z " fill="#959595" transform="translate(178,151)"/>
<path d="M0 0 C0.99 0.99 1.98 1.98 3 3 C2.67 3.66 2.34 4.32 2 5 C0.68 4.34 -0.64 3.68 -2 3 C-1.34 2.67 -0.68 2.34 0 2 C0 1.34 0 0.68 0 0 Z " fill="#747474" transform="translate(891,377)"/>
<path d="M0 0 C0.33 0.66 0.66 1.32 1 2 C1.66 2.33 2.32 2.66 3 3 C2.01 3.99 1.02 4.98 0 6 C0 5.34 0 4.68 0 4 C-0.66 3.67 -1.32 3.34 -2 3 C-1.34 3 -0.68 3 0 3 C0 2.01 0 1.02 0 0 Z " fill="#696969" transform="translate(669,377)"/>
<path d="M0 0 C1.65 1.32 3.3 2.64 5 4 C3.35 4.33 1.7 4.66 0 5 C-0.33 4.01 -0.66 3.02 -1 2 C-0.67 1.34 -0.34 0.68 0 0 Z " fill="#545454" transform="translate(453,377)"/>
<path d="M0 0 C0.99 0.33 1.98 0.66 3 1 C2.67 2.98 2.34 4.96 2 7 C0 4 0 4 0 0 Z " fill="#656565" transform="translate(581,372)"/>
<path d="M0 0 C1.32 0.33 2.64 0.66 4 1 C4 1.99 4 2.98 4 4 C2.68 3.34 1.36 2.68 0 2 C0 1.34 0 0.68 0 0 Z " fill="#181818" transform="translate(872,367)"/>
<path d="M0 0 C0.78375 0.04125 1.5675 0.0825 2.375 0.125 C0.5625 1.6875 0.5625 1.6875 -1.625 3.125 C-2.615 2.795 -3.605 2.465 -4.625 2.125 C-2.625 0.125 -2.625 0.125 0 0 Z " fill="#838383" transform="translate(192.625,278.875)"/>
<path d="M0 0 C2 3 2 3 2 5 C1.01 5.33 0.02 5.66 -1 6 C-0.67 4.02 -0.34 2.04 0 0 Z " fill="#4C4C4C" transform="translate(533,369)"/>
<path d="M0 0 C0.66 0.66 1.32 1.32 2 2 C1.625 4.125 1.625 4.125 1 6 C-0.0625 4.125 -0.0625 4.125 -1 2 C-0.67 1.34 -0.34 0.68 0 0 Z " fill="#4D4D4D" transform="translate(876,369)"/>
<path d="M0 0 C1.32 0.33 2.64 0.66 4 1 C3.01 1.495 3.01 1.495 2 2 C1.67 2.66 1.34 3.32 1 4 C0.67 2.68 0.34 1.36 0 0 Z " fill="#5E5E5E" transform="translate(635,378)"/>
<path d="M0 0 C2 2 2 2 2 5 C1.01 4.67 0.02 4.34 -1 4 C-0.67 2.68 -0.34 1.36 0 0 Z " fill="#3E3E3E" transform="translate(852,370)"/>
<path d="M0 0 C0.33 0.66 0.66 1.32 1 2 C1.66 2.33 2.32 2.66 3 3 C2.34 3 1.68 3 1 3 C0.67 3.99 0.34 4.98 0 6 C-1.125 2.25 -1.125 2.25 0 0 Z " fill="#5D5D5D" transform="translate(440,370)"/>
<path d="M0 0 C-0.33 0.99 -0.66 1.98 -1 3 C-2.32 2.34 -3.64 1.68 -5 1 C-3 0 -3 0 0 0 Z " fill="#686868" transform="translate(903,367)"/>
<path d="M0 0 C0.99 0 1.98 0 3 0 C2.67 1.32 2.34 2.64 2 4 C1.34 3.67 0.68 3.34 0 3 C0 2.01 0 1.02 0 0 Z " fill="#222222" transform="translate(821,366)"/>
<path d="M0 0 C2.475 0.495 2.475 0.495 5 1 C2 3 2 3 0 3 C0 2.01 0 1.02 0 0 Z " fill="#585858" transform="translate(643,366)"/>
<path d="M0 0 C0.99 0 1.98 0 3 0 C2.67 1.32 2.34 2.64 2 4 C1.34 3.67 0.68 3.34 0 3 C0 2.01 0 1.02 0 0 Z " fill="#212121" transform="translate(592,366)"/>
<path d="M0 0 C2 1 2 1 3 3 C2.01 3.33 1.02 3.66 0 4 C-0.66 3.34 -1.32 2.68 -2 2 C-1.34 1.34 -0.68 0.68 0 0 Z " fill="#626262" transform="translate(510,366)"/>
<path d="M0 0 C0.99 0 1.98 0 3 0 C2.34 1.32 1.68 2.64 1 4 C0.34 3.67 -0.32 3.34 -1 3 C-0.67 2.01 -0.34 1.02 0 0 Z " fill="#5B5B5B" transform="translate(446,366)"/>
<path d="M0 0 C0.66 1.32 1.32 2.64 2 4 C0.68 3.34 -0.64 2.68 -2 2 C-1.34 1.34 -0.68 0.68 0 0 Z " fill="#616161" transform="translate(777,377)"/>
<path d="M0 0 C0.66 1.32 1.32 2.64 2 4 C1.01 4.33 0.02 4.66 -1 5 C-0.67 3.35 -0.34 1.7 0 0 Z " fill="#585858" transform="translate(718,372)"/>
<path d="M0 0 C0.33 0.99 0.66 1.98 1 3 C-0.32 3.33 -1.64 3.66 -3 4 C-3 3.34 -3 2.68 -3 2 C-2.01 1.34 -1.02 0.68 0 0 Z " fill="#111111" transform="translate(444,371)"/>
<path d="M0 0 C0.66 1.32 1.32 2.64 2 4 C1.01 4.33 0.02 4.66 -1 5 C-0.67 3.35 -0.34 1.7 0 0 Z " fill="#515151" transform="translate(824,368)"/>
<path d="M0 0 C0.66 1.32 1.32 2.64 2 4 C1.01 4.33 0.02 4.66 -1 5 C-0.67 3.35 -0.34 1.7 0 0 Z " fill="#4E4E4E" transform="translate(595,368)"/>
<path d="M0 0 C0.99 0 1.98 0 3 0 C2.34 1.32 1.68 2.64 1 4 C0.67 2.68 0.34 1.36 0 0 Z " fill="#494949" transform="translate(880,378)"/>
<path d="M0 0 C0.99 0.33 1.98 0.66 3 1 C2.67 1.99 2.34 2.98 2 4 C1.34 2.68 0.68 1.36 0 0 Z " fill="#363636" transform="translate(437,369)"/>
</svg>
